<?xml version="1.0" encoding="UTF-8"?>
<svg id="Layer_1" xmlns="http://www.w3.org/2000/svg" version="1.1" viewBox="0 0 451.91 77.83">
  <!-- Generator: Adobe Illustrator 29.0.0, SVG Export Plug-In . SVG Version: 2.1.0 Build 186)  -->
  <defs>
    <style>
      .st0 {
        fill: #fff;
      }
    </style>
  </defs>
  <path class="st0" d="M4.59,32.97c.99-6.32,1.49-10.41,1.61-14.38h15.86c0,2.11,0,4.83-.37,7.31,2.85-4.59,8.06-8.55,14.62-8.55,5.58,0,9.42,2.73,10.91,8.06,4.09-5.58,9.05-8.06,14.62-8.06,8.3,0,13.76,5.45,11.9,17.1l-4.21,27.27h-16.24l3.97-24.79c.62-4.34-.87-6.44-3.97-6.44-3.59,0-5.82,2.35-6.57,6.82l-3.84,24.54h-15.99l3.84-24.91c.74-4.34-.87-6.32-3.97-6.32-3.59,0-5.83,2.48-6.57,6.82l-3.84,24.54H0l4.59-28.75v-.25h0ZM75.97,61.84h16.11l6.82-43.13h-16.24l-6.82,43.13h.13ZM99.15,61.84h16.24l3.72-23.55c.87-5.21,3.35-7.81,7.56-7.81,3.72,0,5.2,2.23,4.46,6.82l-3.84,24.54h16.24l4.09-26.03c2.11-13.01-4.09-18.34-12.02-18.34-7.06,0-11.77,3.84-14.75,8.8.37-2.6.37-5.45.37-7.56h-15.86c-.12,3.97-.62,8.06-1.61,14.38l-4.59,28.75h-.01ZM150.71,44.12c0,12.52,6.57,18.71,15.49,18.71,6.44,0,10.66-2.6,13.88-7.81,0,2.35-.12,4.83.25,6.69h15.99c-.37-3.59,0-7.81.87-13.51L204.87,0h-16.36l-3.84,24.66c-1.86-4.59-6.32-7.31-12.52-7.31-12.27,0-21.44,9.79-21.44,26.77h0ZM182.81,37.18c0,7.93-3.84,13.63-9.17,13.63-4.21,0-6.32-2.97-6.32-8.06,0-8.06,3.72-13.39,9.05-13.39,4.09,0,6.57,2.85,6.57,7.81M253.82,18.59h-16.24l-.99,6.07c-1.86-4.46-5.83-7.31-12.52-7.31-12.15,0-20.95,9.67-20.95,24.04,0,11.9,6.94,17.85,15.99,17.85,6.2,0,10.41-2.48,13.14-6.82l-1.11,6.82c-.62,4.21-2.36,7.31-8.18,7.31-4.83,0-6.44-2.73-6.82-5.08h-16.11c.37,9.05,7.06,16.36,23.05,16.36s22.18-5.95,24.17-18.59l6.44-40.53.12-.12h.01ZM234.86,36.31c0,6.44-3.22,11.65-9.05,11.65-4.09,0-6.07-3.1-6.07-7.56,0-5.58,2.85-11.15,8.68-11.15,3.97,0,6.32,2.97,6.32,7.06M253.82,61.84h16.24l2.98-18.47c1.24-8.06,6.32-10.53,15.37-10.04l2.35-15.12c-7.31,0-12.27,3.1-15.62,10.04.37-3.47.62-7.31.62-9.54h-15.86c-.12,3.97-.62,8.06-1.61,14.38l-4.59,28.75h.12,0ZM337.73,18.59h-16.11l-3.84,24.54c-.87,5.21-3.35,7.81-7.56,7.81-3.59,0-4.96-2.35-4.34-6.82l4.09-25.41h-16.24l-4.09,26.03c-2.11,13.01,4.09,18.22,12.64,18.22,6.57,0,10.78-3.35,14-8.06-.12,2.35-.12,5.08,0,6.94h15.86c-.12-3.59.12-7.81,1.11-13.51l4.59-29.62-.12-.12h.01ZM348.38,61.84h17.35l22.56-43.13h-15.99l-12.14,26.52-3.47-26.52h-16.61l8.3,43.13ZM406.76,51.93c-5.45,0-7.31-3.59-7.31-8.06h29.74l.25-1.86c2.35-15.37-6.32-24.54-20.7-24.54s-25.04,10.29-25.04,25.65c0,13.76,10.29,19.83,22.8,19.83s20.57-5.58,22.56-15.62h-15.24c-.87,2.85-2.85,4.83-6.94,4.83M400.44,35.32c1.61-5.45,4.83-7.56,8.18-7.56,4.71,0,6.32,3.1,5.83,7.56h-14.01,0Z"/>
  <circle class="st0" cx="441.97" cy="52.99" r="9.95"/>
</svg>